<?xml version="1.0" encoding="UTF-8"?>
<svg version="1.1" xmlns="http://www.w3.org/2000/svg" width="500" height="500">
<path d="M0 0 C165 0 330 0 500 0 C500 165 500 330 500 500 C335 500 170 500 0 500 C0 335 0 170 0 0 Z " fill="#8A3CEC" transform="translate(0,0)"/>
<path d="M0 0 C1.55606751 1.55606751 1.12970769 3.05957371 1.1328125 5.21875 C1.13410156 6.06824219 1.13539063 6.91773437 1.13671875 7.79296875 C1.13285156 8.68628906 1.12898437 9.57960938 1.125 10.5 C1.12886719 11.39332031 1.13273438 12.28664063 1.13671875 13.20703125 C1.13478516 14.48126953 1.13478516 14.48126953 1.1328125 15.78125 C1.13168457 16.56564453 1.13055664 17.35003906 1.12939453 18.15820312 C1 20 1 20 0 21 C-1.44414405 21.09663835 -2.89249563 21.13199699 -4.33984375 21.140625 C-19.80869298 21.12496006 -19.80869298 21.12496006 -32.77734375 28.6875 C-40.35943241 37.58579476 -41.59448817 48.96936668 -41.54589844 60.20410156 C-41.56140495 62.09404594 -41.56140495 62.09404594 -41.57722473 64.02217102 C-41.60480323 67.43673048 -41.60849575 70.85092561 -41.60750484 74.26558018 C-41.61065851 77.84907009 -41.63632707 81.4324017 -41.65948486 85.01580811 C-41.69986223 91.78339786 -41.72034228 98.55089172 -41.73345876 105.31858325 C-41.74939114 113.03101305 -41.78783257 120.74328106 -41.82805204 128.45561647 C-41.91020063 144.30369607 -41.96444862 160.15174316 -42 176 C-41.12847447 175.99631283 -40.25694895 175.99262566 -39.35901356 175.98882675 C-18.16048623 175.90051928 3.03800944 175.83431159 24.23668194 175.79275131 C34.48817738 175.77211926 44.73955011 175.74398634 54.9909668 175.69824219 C63.92529707 175.65839415 72.85953848 175.63257186 81.79395515 175.62364602 C86.5254296 175.61842783 91.2566498 175.60614982 95.98804283 175.57707977 C100.44086206 175.5499428 104.89332214 175.54155151 109.3462162 175.54756927 C110.98088151 175.54646827 112.61555875 175.53850403 114.25015259 175.5231781 C116.4821666 175.50327618 118.71282462 175.50806036 120.94487 175.51898193 C122.81841424 175.51345118 122.81841424 175.51345118 124.72980785 175.50780869 C128.60100853 176.09045682 130.24221019 177.2768107 133 180 C134.73104505 183.4620901 134.43645583 186.57360274 133.31347656 190.24365234 C132.31164521 192.92063401 131.23717768 195.55442107 130.125 198.1875 C129.72079834 199.15494141 129.31659668 200.12238281 128.90014648 201.11914062 C122.51866835 216.11016051 115.10915567 230.18709838 105 243 C104.57638184 243.53786133 104.15276367 244.07572266 103.71630859 244.62988281 C88.56098261 263.63246154 70.94714714 278.74956643 50 291 C49.39607422 291.35690918 48.79214844 291.71381836 48.16992188 292.08154297 C37.32406011 298.41821687 25.84474701 302.88557768 14 307 C12.76805908 307.42974121 12.76805908 307.42974121 11.51123047 307.86816406 C-9.86862417 315.17154655 -30.7849519 317.36600653 -53.25 317.4375 C-54.63034424 317.44689606 -54.63034424 317.44689606 -56.03857422 317.45648193 C-73.12304181 317.52996433 -90.00923728 315.87189142 -106.625 311.75 C-107.4799707 311.54093018 -108.33494141 311.33186035 -109.21582031 311.11645508 C-156.56333541 299.0615859 -198.12071918 268.74801741 -223.484375 226.98046875 C-242.63470937 194.37708526 -242.63470937 194.37708526 -241 182 C-239.20437595 179.24670979 -237.94745078 177.47372539 -235 176 C-232.78285217 175.9054508 -230.56275972 175.87810166 -228.34359741 175.87974548 C-227.30585361 175.87846385 -227.30585361 175.87846385 -226.2471453 175.87715632 C-223.91783003 175.87550291 -221.58858602 175.88102061 -219.25927734 175.88647461 C-217.5939789 175.88675654 -215.92868033 175.88659864 -214.26338196 175.8860321 C-209.73264233 175.88574435 -205.201929 175.89163757 -200.67119551 175.89860606 C-195.93994752 175.90484321 -191.20869898 175.90544369 -186.47744751 175.90663147 C-177.51372696 175.90974372 -168.55001855 175.91795568 -159.58630335 175.92798096 C-149.38330886 175.9391454 -139.18031379 175.94465338 -128.97731471 175.94967639 C-107.98486968 175.96013837 -86.99243561 175.97773576 -66 176 C-66.00276538 175.35414916 -66.00553076 174.70829832 -66.00837994 174.04287624 C-66.07488228 158.2652029 -66.1243978 142.48757889 -66.15543652 126.70979977 C-66.17084888 119.07951229 -66.19182944 111.44931887 -66.22631836 103.8190918 C-66.25639452 97.16190906 -66.27561582 90.50479449 -66.28226548 83.84754568 C-66.2861472 80.32862082 -66.29514928 76.80989084 -66.31719017 73.29102898 C-66.45737585 50.00390889 -66.51386523 28.87998784 -49.24609375 11.1171875 C-35.7643214 -1.59084835 -17.86094266 -5.22852381 0 0 Z " fill="#FEFDFE" transform="translate(303,93)"/>
<path d="M0 0 C1.36878445 0.00032605 1.36878445 0.00032605 2.76522112 0.00065869 C3.81647189 -0.0039401 4.86772265 -0.0085389 5.95082951 -0.01327705 C7.69680778 -0.00556171 7.69680778 -0.00556171 9.47805834 0.0023095 C10.70750532 -0.00010491 11.9369523 -0.00251933 13.20365524 -0.00500691 C16.62722982 -0.00968371 20.05058218 -0.00533471 23.47413659 0.00275737 C27.16197632 0.00931703 30.84980253 0.00438968 34.53764391 0.00087517 C41.76645642 -0.00417495 48.9952233 0.00148498 56.22403014 0.01072548 C64.63495745 0.02109196 73.04587481 0.02103975 81.45680732 0.0205529 C96.45987233 0.02005187 111.46291605 0.02922467 126.46597338 0.04373711 C141.03791743 0.05782533 155.60984274 0.06490792 170.18179369 0.06424493 C171.07922311 0.06420497 171.97665252 0.06416501 172.90127677 0.06412385 C173.79712511 0.06408349 174.69297345 0.06404314 175.6159687 0.06400156 C192.18524434 0.06331233 208.75451199 0.06919829 225.32378504 0.07815478 C231.192384 0.08117578 237.06098151 0.08223489 242.92958117 0.08268708 C250.07739862 0.08336809 257.2252026 0.08781695 264.37301433 0.09701989 C268.02281096 0.101648 271.67259032 0.10467967 275.32239008 0.10342568 C279.27150993 0.10213461 283.22059484 0.10855768 287.16970873 0.11583489 C288.33369424 0.11428629 289.49767976 0.11273769 290.69693756 0.11114216 C291.74818833 0.1143666 292.7994391 0.11759105 293.88254595 0.12091321 C295.2513304 0.12196984 295.2513304 0.12196984 296.64776707 0.12304783 C298.82388353 0.24954766 298.82388353 0.24954766 300.82388353 1.24954766 C300.36123232 6.73827343 298.89299612 10.62814678 295.94888353 15.31204766 C295.54887133 15.95907647 295.14885912 16.60610528 294.73672533 17.27274102 C279.6559855 41.14936952 258.90614805 59.43931925 233.82388353 72.24954766 C233.19095385 72.57294122 232.55802416 72.89633477 231.90591478 73.22952813 C222.8239277 77.80095101 213.57483999 81.32222077 203.82388353 84.24954766 C202.63278978 84.6091961 201.44169603 84.96884454 200.21450853 85.33939141 C184.42374133 89.82925548 168.73959033 91.749427 152.34439135 91.5857293 C149.82420836 91.56205071 147.30508829 91.56521701 144.78482103 91.57181329 C130.38416108 91.54841206 115.28011138 91.27430005 101.44888353 86.87454766 C100.71105639 86.65395684 99.97322924 86.43336602 99.21304369 86.20609063 C97.74982036 85.76664701 96.28857753 85.3205355 94.82974291 84.86673516 C93.01864023 84.3094728 91.19521861 83.79263714 89.37075853 83.28079766 C66.3180562 76.69431128 45.59494318 64.56479597 28.07778978 48.29251641 C25.83151622 46.20322499 25.83151622 46.20322499 23.30435228 44.30032891 C18.79445412 40.57167295 15.42116271 35.83695743 11.82388353 31.24954766 C10.66759447 29.78195 10.66759447 29.78195 9.48794603 28.28470391 C-3.73878746 11.10800734 -3.73878746 11.10800734 -4.48471022 4.52689141 C-4.061476 1.40353 -3.16131356 0.36252582 0 0 Z " fill="#8A3CEC" transform="translate(101.17611646652222,293.7504523396492)"/>
<path d="M0 0 C1.65 0 3.3 0 5 0 C5.73171392 1.72809031 6.46016515 3.45756202 7.1875 5.1875 C7.64898437 6.27417969 8.11046875 7.36085938 8.5859375 8.48046875 C9.52115717 10.80818401 10.38259529 13.16704403 11.1640625 15.55078125 C11.73253906 17.25814453 11.73253906 17.25814453 12.3125 19 C12.80169922 20.5778125 12.80169922 20.5778125 13.30078125 22.1875 C15.73618079 26.21850614 18.72844026 27.28717621 23 29 C23.77126221 29.31775391 24.54252441 29.63550781 25.3371582 29.96289062 C27.71480664 30.92028714 30.1036114 31.84062127 32.5 32.75 C33.32242188 33.06582031 34.14484375 33.38164062 34.9921875 33.70703125 C36.99341746 34.47494507 38.99651441 35.23799052 41 36 C40.76855469 38.36450195 40.76855469 38.36450195 40 41 C38.12988281 42.27026367 38.12988281 42.27026367 35.703125 43.16796875 C34.8265625 43.50376953 33.95 43.83957031 33.046875 44.18554688 C32.12390625 44.51619141 31.2009375 44.84683594 30.25 45.1875 C28.88875 45.70086914 28.88875 45.70086914 27.5 46.22460938 C25.79931168 46.86485388 24.09549274 47.49688714 22.38769531 48.11791992 C21.59975586 48.40900635 20.81181641 48.70009277 20 49 C19.13060791 49.24516357 18.26121582 49.49032715 17.36547852 49.74291992 C14.04001708 51.51016122 13.59780048 53.38470801 12.32421875 56.8828125 C11.67163086 58.63271484 11.67163086 58.63271484 11.00585938 60.41796875 C10.57080078 61.64128906 10.13574219 62.86460937 9.6875 64.125 C9.0059082 65.97158203 9.0059082 65.97158203 8.31054688 67.85546875 C7.19025106 70.89795633 6.08764761 73.94572085 5 77 C2.63378906 76.82543945 2.63378906 76.82543945 0 76 C-1.25097656 73.74682617 -1.25097656 73.74682617 -2.140625 70.79296875 C-2.66462891 69.2006543 -2.66462891 69.2006543 -3.19921875 67.57617188 C-3.89506217 65.33214151 -4.58012252 63.08473665 -5.25390625 60.83398438 C-7.06171607 54.96420012 -7.06171607 54.96420012 -10.98632812 50.46923828 C-13.29800889 49.42837941 -15.56214915 48.69069139 -18 48 C-19.52624167 47.42029365 -21.04726474 46.82664406 -22.5625 46.21875 C-24.80672194 45.34709262 -27.051019 44.48109448 -29.30859375 43.64453125 C-31.5 42.78125 -31.5 42.78125 -35 41 C-35.71875 38.88867188 -35.71875 38.88867188 -36 37 C-32.84757309 34.73316052 -30.00679554 33.69036954 -26.26953125 32.87109375 C-15.72489454 30.29839803 -15.72489454 30.29839803 -8.04589844 23.08251953 C-4.46221873 15.7059174 -2.05094474 7.92632341 0 0 Z " fill="#FDFCFE" transform="translate(151,105)"/>
<path d="M0 0 C1.9375 0.1875 1.9375 0.1875 4 1 C5.125 2.75 5.125 2.75 6 5 C6.34675781 5.81210938 6.69351563 6.62421875 7.05078125 7.4609375 C8 10 8 10 8.54296875 12.3515625 C9.34989478 15.19781066 10.02725364 16.75189112 12 19 C15.52278463 20.94903529 19.26171103 22.33046494 23.0690918 23.61767578 C24.18537964 24.00221924 24.18537964 24.00221924 25.32421875 24.39453125 C26.00572998 24.60956299 26.68724121 24.82459473 27.3894043 25.04614258 C29 26 29 26 29.72973633 28.1003418 C29.86351685 29.04067261 29.86351685 29.04067261 30 30 C25.61411617 32.27416199 21.43844369 34.19182287 16.75 35.75 C13.1954233 37.1522642 11.37584255 38.19224572 9.625 41.625 C9.04348901 43.06790812 8.50467247 44.52845503 8 46 C7.34465248 47.81662333 6.67781218 49.62913849 6 51.4375 C5.566875 52.70400391 5.566875 52.70400391 5.125 53.99609375 C4 56 4 56 1.875 56.78515625 C0.946875 56.89150391 0.946875 56.89150391 0 57 C-0.58600461 55.70954304 -1.16858462 54.41753112 -1.75 53.125 C-2.1315625 52.30644531 -2.513125 51.48789063 -2.90625 50.64453125 C-4 48 -4 48 -4.59375 45.38671875 C-5.3685216 42.3475849 -6.05274086 40.48675951 -8 38 C-12.93212119 35.09593549 -18.55022382 33.62295532 -24 32 C-24.66 31.67 -25.32 31.34 -26 31 C-26 29.35 -26 27.7 -26 26 C-23.2100561 24.82905995 -20.41821403 23.66309073 -17.625 22.5 C-16.8309375 22.16613281 -16.036875 21.83226562 -15.21875 21.48828125 C-14.45820313 21.17246094 -13.69765625 20.85664063 -12.9140625 20.53125 C-12.2123291 20.23798828 -11.5105957 19.94472656 -10.78759766 19.64257812 C-9 19 -9 19 -7 19 C-6.82984375 17.71029297 -6.82984375 17.71029297 -6.65625 16.39453125 C-5.97883194 12.8905057 -4.90330481 9.96323768 -3.5 6.6875 C-3.0565625 5.63949219 -2.613125 4.59148437 -2.15625 3.51171875 C-1 1 -1 1 0 0 Z " fill="#FCFAFE" transform="translate(345,182)"/>
</svg>
